<?xml version="1.0" encoding="UTF-8"?>
<!DOCTYPE svg PUBLIC "-//W3C//DTD SVG 1.1//EN" "http://www.w3.org/Graphics/SVG/1.1/DTD/svg11.dtd">
<!-- Creator: CorelDRAW 2021 (64-Bit) -->
<svg xmlns="http://www.w3.org/2000/svg" xml:space="preserve" width="25.4593mm" height="6.9029mm" version="1.1" style="shape-rendering:geometricPrecision; text-rendering:geometricPrecision; image-rendering:optimizeQuality; fill-rule:evenodd; clip-rule:evenodd"
viewBox="0 0 2497.29 677.1"
 xmlns:xlink="http://www.w3.org/1999/xlink"
 xmlns:xodm="http://www.corel.com/coreldraw/odm/2003">
 <defs>
  <style type="text/css">
   <![CDATA[
    .fil0 {fill:black;fill-rule:nonzero}
   ]]>
  </style>
 </defs>
 <g id="Layer_x0020_1">
  <metadata id="CorelCorpID_0Corel-Layer"/>
  <path class="fil0" d="M96.43 378.54l-22.68 -2.06 0.09 -0.77 -73.84 -9.23c36.16,-17.03 72.4,-33.81 108.32,-51.31l23.99 -12.18 24.33 -12.82c19.13,-10.19 41.55,-22.69 65.9,-37.15 23.58,-14.01 47.9,-29.29 70.75,-45.08 24.22,-16.75 47.11,-34.29 66.36,-51.84 16.19,-14.75 29.52,-29.26 38.37,-42.87 4.3,-6.6 7.44,-12.84 9.29,-18.57 1.45,-4.51 2.05,-8.62 1.74,-12.2 -0.26,-2.96 -1.3,-5.99 -3.27,-9.02 -2.58,-3.98 -6.68,-8.05 -12.52,-12.13l-20.32 -14.23 32.89 -47.06 20.32 14.22c11.8,8.26 20.92,17.48 27.51,27.51 7.34,11.03 11.43,23.02 12.57,35.74 1.06,11.85 -0.55,23.63 -4.35,35.23 -3.47,10.66 -8.87,21.31 -15.69,31.81 -12.65,19.42 -30.62,38.84 -51.7,57.65 -20.24,18.05 -43.86,35.98 -68.54,53.05 -24.55,16.97 -49.93,32.95 -74.14,47.33 -19.75,11.72 -39.62,22.88 -57.95,32.83l15.05 2.71c20.73,3.81 42.36,8.06 63.11,12.59 22.09,4.84 44.84,10.29 67.13,16.32 22.38,6.06 44.47,12.79 65.15,20.15 20.7,7.37 40.29,15.55 57.64,24.6 18.14,9.46 33.67,19.88 45.35,31.31l17.71 17.33 -40.2 41.07 -17.8 -17.41c-7.08,-6.93 -17.3,-13.79 -29.83,-20.46 -14.96,-7.86 -32.65,-15.31 -52.02,-22.21 -18.34,-6.53 -37.5,-12.44 -56.72,-17.72 -21.74,-5.97 -45.17,-11.59 -68.6,-16.71 -19.92,-4.36 -38.36,-8.06 -54.91,-11.15 -22.06,-4.12 -41.68,-7.44 -57.77,-10 -16.92,-2.54 -33.75,-5.12 -50.72,-7.26zm798.62 -210.59c191.26,-12.06 389.67,0.27 583.47,33.75 191.01,33 377.88,86.6 549.34,157.73 168.12,69.73 321.57,156.38 449.86,257.06l19.56 15.35 -35.55 45.26 -19.58 -15.37c-124.13,-97.41 -273.07,-181.47 -436.56,-249.25 -167.37,-69.41 -349.96,-121.78 -536.77,-154.05 -189.63,-32.77 -383.42,-44.83 -569.93,-33.09 -176.74,11.12 -346.96,43.64 -500.86,100.16l-23.33 8.56 -19.85 -53.99 23.36 -8.59c159.19,-58.46 334.82,-92.05 516.83,-103.53z"/>
 </g>
</svg>
