<svg width="622" height="245" viewBox="0 0 622 245" fill="none" xmlns="http://www.w3.org/2000/svg">
<g filter="url(#filter0_d_16_397)">
<rect x="22" y="19" width="570" height="192.676" rx="15" fill="url(#paint0_linear_16_397)" shape-rendering="crispEdges"/>
</g>
<mask id="mask0_16_397" style="mask-type:alpha" maskUnits="userSpaceOnUse" x="22" y="19" width="570" height="169">
<rect x="22" y="19" width="570" height="168.061" rx="15" fill="#2C1250"/>
</mask>
<g mask="url(#mask0_16_397)">
<rect x="-52.2498" y="14.959" width="643.106" height="8.08308" fill="#00C52B"/>
</g>
<path d="M194 96.5H401C406.247 96.5 410.5 100.753 410.5 106V142C410.5 147.247 406.247 151.5 401 151.5H194C188.753 151.5 184.5 147.247 184.5 142V106C184.5 100.753 188.753 96.5 194 96.5Z" fill="#282828" stroke="#00C52B"/>
<path d="M239.451 124.752C239.451 125.413 239.408 126.011 239.323 126.544H225.851C225.957 127.952 226.48 129.083 227.419 129.936C228.357 130.789 229.509 131.216 230.875 131.216C232.837 131.216 234.224 130.395 235.035 128.752H238.971C238.437 130.373 237.467 131.707 236.059 132.752C234.672 133.776 232.944 134.288 230.875 134.288C229.189 134.288 227.675 133.915 226.331 133.168C225.008 132.4 223.963 131.333 223.195 129.968C222.448 128.581 222.075 126.981 222.075 125.168C222.075 123.355 222.437 121.765 223.163 120.4C223.909 119.013 224.944 117.947 226.267 117.2C227.611 116.453 229.147 116.08 230.875 116.08C232.539 116.08 234.021 116.443 235.323 117.168C236.624 117.893 237.637 118.917 238.363 120.24C239.088 121.541 239.451 123.045 239.451 124.752ZM235.643 123.6C235.621 122.256 235.141 121.179 234.203 120.368C233.264 119.557 232.101 119.152 230.715 119.152C229.456 119.152 228.379 119.557 227.483 120.368C226.587 121.157 226.053 122.235 225.883 123.6H235.643ZM264.385 116.08C265.771 116.08 267.009 116.368 268.097 116.944C269.206 117.52 270.07 118.373 270.689 119.504C271.329 120.635 271.649 122 271.649 123.6V134H268.033V124.144C268.033 122.565 267.638 121.36 266.849 120.528C266.059 119.675 264.982 119.248 263.617 119.248C262.251 119.248 261.163 119.675 260.353 120.528C259.563 121.36 259.169 122.565 259.169 124.144V134H255.553V124.144C255.553 122.565 255.158 121.36 254.369 120.528C253.579 119.675 252.502 119.248 251.137 119.248C249.771 119.248 248.683 119.675 247.873 120.528C247.083 121.36 246.689 122.565 246.689 124.144V134H243.041V116.368H246.689V118.384C247.286 117.659 248.043 117.093 248.961 116.688C249.878 116.283 250.859 116.08 251.905 116.08C253.313 116.08 254.571 116.379 255.681 116.976C256.79 117.573 257.643 118.437 258.241 119.568C258.774 118.501 259.606 117.659 260.737 117.04C261.867 116.4 263.083 116.08 264.385 116.08ZM288.251 118.992C288.87 118.139 289.712 117.445 290.779 116.912C291.867 116.357 293.072 116.08 294.395 116.08C295.952 116.08 297.36 116.453 298.619 117.2C299.878 117.947 300.87 119.013 301.595 120.4C302.32 121.765 302.683 123.333 302.683 125.104C302.683 126.875 302.32 128.464 301.595 129.872C300.87 131.259 299.867 132.347 298.587 133.136C297.328 133.904 295.931 134.288 294.395 134.288C293.03 134.288 291.814 134.021 290.747 133.488C289.702 132.955 288.87 132.272 288.251 131.44V134H284.603V110.32H288.251V118.992ZM298.971 125.104C298.971 123.888 298.715 122.843 298.203 121.968C297.712 121.072 297.051 120.4 296.219 119.952C295.408 119.483 294.534 119.248 293.595 119.248C292.678 119.248 291.803 119.483 290.971 119.952C290.16 120.421 289.499 121.104 288.987 122C288.496 122.896 288.251 123.952 288.251 125.168C288.251 126.384 288.496 127.451 288.987 128.368C289.499 129.264 290.16 129.947 290.971 130.416C291.803 130.885 292.678 131.12 293.595 131.12C294.534 131.12 295.408 130.885 296.219 130.416C297.051 129.925 297.712 129.221 298.203 128.304C298.715 127.387 298.971 126.32 298.971 125.104ZM309.939 118.928C310.472 118.032 311.176 117.339 312.051 116.848C312.947 116.336 314.003 116.08 315.219 116.08V119.856H314.291C312.861 119.856 311.773 120.219 311.027 120.944C310.301 121.669 309.939 122.928 309.939 124.72V134H306.291V116.368H309.939V118.928ZM334.732 124.752C334.732 125.413 334.689 126.011 334.604 126.544H321.132C321.239 127.952 321.761 129.083 322.7 129.936C323.639 130.789 324.791 131.216 326.156 131.216C328.119 131.216 329.505 130.395 330.316 128.752H334.252C333.719 130.373 332.748 131.707 331.34 132.752C329.953 133.776 328.225 134.288 326.156 134.288C324.471 134.288 322.956 133.915 321.612 133.168C320.289 132.4 319.244 131.333 318.476 129.968C317.729 128.581 317.356 126.981 317.356 125.168C317.356 123.355 317.719 121.765 318.444 120.4C319.191 119.013 320.225 117.947 321.548 117.2C322.892 116.453 324.428 116.08 326.156 116.08C327.82 116.08 329.303 116.443 330.604 117.168C331.905 117.893 332.919 118.917 333.644 120.24C334.369 121.541 334.732 123.045 334.732 124.752ZM330.924 123.6C330.903 122.256 330.423 121.179 329.484 120.368C328.545 119.557 327.383 119.152 325.996 119.152C324.737 119.152 323.66 119.557 322.764 120.368C321.868 121.157 321.335 122.235 321.164 123.6H330.924ZM345.138 130.736L350.13 116.368H354.002L347.282 134H342.93L336.242 116.368H340.146L345.138 130.736ZM372.919 124.752C372.919 125.413 372.877 126.011 372.791 126.544H359.319C359.426 127.952 359.949 129.083 360.887 129.936C361.826 130.789 362.978 131.216 364.343 131.216C366.306 131.216 367.693 130.395 368.503 128.752H372.439C371.906 130.373 370.935 131.707 369.527 132.752C368.141 133.776 366.413 134.288 364.343 134.288C362.658 134.288 361.143 133.915 359.799 133.168C358.477 132.4 357.431 131.333 356.663 129.968C355.917 128.581 355.543 126.981 355.543 125.168C355.543 123.355 355.906 121.765 356.631 120.4C357.378 119.013 358.413 117.947 359.735 117.2C361.079 116.453 362.615 116.08 364.343 116.08C366.007 116.08 367.49 116.443 368.791 117.168C370.093 117.893 371.106 118.917 371.831 120.24C372.557 121.541 372.919 123.045 372.919 124.752ZM369.111 123.6C369.09 122.256 368.61 121.179 367.671 120.368C366.733 119.557 365.57 119.152 364.183 119.152C362.925 119.152 361.847 119.557 360.951 120.368C360.055 121.157 359.522 122.235 359.351 123.6H369.111Z" fill="#00C52B"/>
<defs>
<filter id="filter0_d_16_397" x="0" y="0" width="622" height="244.676" filterUnits="userSpaceOnUse" color-interpolation-filters="sRGB">
<feFlood flood-opacity="0" result="BackgroundImageFix"/>
<feColorMatrix in="SourceAlpha" type="matrix" values="0 0 0 0 0 0 0 0 0 0 0 0 0 0 0 0 0 0 127 0" result="hardAlpha"/>
<feOffset dx="4" dy="7"/>
<feGaussianBlur stdDeviation="13"/>
<feComposite in2="hardAlpha" operator="out"/>
<feColorMatrix type="matrix" values="0 0 0 0 0 0 0 0 0 0 0 0 0 0 0 0 0 0 0.12 0"/>
<feBlend mode="normal" in2="BackgroundImageFix" result="effect1_dropShadow_16_397"/>
<feBlend mode="normal" in="SourceGraphic" in2="effect1_dropShadow_16_397" result="shape"/>
</filter>
<linearGradient id="paint0_linear_16_397" x1="-28.5" y1="115" x2="754" y2="266.5" gradientUnits="userSpaceOnUse">
<stop offset="0.0729167" stop-color="#282828"/>
<stop offset="0.34375" stop-color="#282828" stop-opacity="0.8"/>
<stop offset="0.567708" stop-color="#282828" stop-opacity="0.4"/>
<stop offset="0.848958" stop-color="#282828" stop-opacity="0.8"/>
<stop offset="1" stop-color="#282828"/>
</linearGradient>
</defs>
</svg>
