<svg width="622" height="245" viewBox="0 0 622 245" fill="none" xmlns="http://www.w3.org/2000/svg">
<mask id="mask0_16_422" style="mask-type:alpha" maskUnits="userSpaceOnUse" x="22" y="16" width="570" height="169">
<rect x="22" y="16" width="570" height="168.061" rx="15" fill="#2C1250"/>
</mask>
<g mask="url(#mask0_16_422)">
<rect x="-52" y="12" width="644" height="7" fill="#00C52B"/>
</g>
<g filter="url(#filter0_d_16_422)">
<rect x="22" y="19" width="570" height="192.676" rx="15" fill="url(#paint0_linear_16_422)" shape-rendering="crispEdges"/>
</g>
<path d="M203 93.5H410C415.247 93.5 419.5 97.7533 419.5 103V139C419.5 144.247 415.247 148.5 410 148.5H203C197.753 148.5 193.5 144.247 193.5 139V103C193.5 97.7533 197.753 93.5 203 93.5Z" fill="#282828" stroke="#00C52B"/>
<path d="M248.451 121.752C248.451 122.413 248.408 123.011 248.323 123.544H234.851C234.957 124.952 235.48 126.083 236.419 126.936C237.357 127.789 238.509 128.216 239.875 128.216C241.837 128.216 243.224 127.395 244.035 125.752H247.971C247.437 127.373 246.467 128.707 245.059 129.752C243.672 130.776 241.944 131.288 239.875 131.288C238.189 131.288 236.675 130.915 235.331 130.168C234.008 129.4 232.963 128.333 232.195 126.968C231.448 125.581 231.075 123.981 231.075 122.168C231.075 120.355 231.437 118.765 232.163 117.4C232.909 116.013 233.944 114.947 235.267 114.2C236.611 113.453 238.147 113.08 239.875 113.08C241.539 113.08 243.021 113.443 244.323 114.168C245.624 114.893 246.637 115.917 247.363 117.24C248.088 118.541 248.451 120.045 248.451 121.752ZM244.643 120.6C244.621 119.256 244.141 118.179 243.203 117.368C242.264 116.557 241.101 116.152 239.715 116.152C238.456 116.152 237.379 116.557 236.483 117.368C235.587 118.157 235.053 119.235 234.883 120.6H244.643ZM273.385 113.08C274.771 113.08 276.009 113.368 277.097 113.944C278.206 114.52 279.07 115.373 279.689 116.504C280.329 117.635 280.649 119 280.649 120.6V131H277.033V121.144C277.033 119.565 276.638 118.36 275.849 117.528C275.059 116.675 273.982 116.248 272.617 116.248C271.251 116.248 270.163 116.675 269.353 117.528C268.563 118.36 268.169 119.565 268.169 121.144V131H264.553V121.144C264.553 119.565 264.158 118.36 263.369 117.528C262.579 116.675 261.502 116.248 260.137 116.248C258.771 116.248 257.683 116.675 256.873 117.528C256.083 118.36 255.689 119.565 255.689 121.144V131H252.041V113.368H255.689V115.384C256.286 114.659 257.043 114.093 257.961 113.688C258.878 113.283 259.859 113.08 260.905 113.08C262.313 113.08 263.571 113.379 264.681 113.976C265.79 114.573 266.643 115.437 267.241 116.568C267.774 115.501 268.606 114.659 269.737 114.04C270.867 113.4 272.083 113.08 273.385 113.08ZM297.251 115.992C297.87 115.139 298.712 114.445 299.779 113.912C300.867 113.357 302.072 113.08 303.395 113.08C304.952 113.08 306.36 113.453 307.619 114.2C308.878 114.947 309.87 116.013 310.595 117.4C311.32 118.765 311.683 120.333 311.683 122.104C311.683 123.875 311.32 125.464 310.595 126.872C309.87 128.259 308.867 129.347 307.587 130.136C306.328 130.904 304.931 131.288 303.395 131.288C302.03 131.288 300.814 131.021 299.747 130.488C298.702 129.955 297.87 129.272 297.251 128.44V131H293.603V107.32H297.251V115.992ZM307.971 122.104C307.971 120.888 307.715 119.843 307.203 118.968C306.712 118.072 306.051 117.4 305.219 116.952C304.408 116.483 303.534 116.248 302.595 116.248C301.678 116.248 300.803 116.483 299.971 116.952C299.16 117.421 298.499 118.104 297.987 119C297.496 119.896 297.251 120.952 297.251 122.168C297.251 123.384 297.496 124.451 297.987 125.368C298.499 126.264 299.16 126.947 299.971 127.416C300.803 127.885 301.678 128.12 302.595 128.12C303.534 128.12 304.408 127.885 305.219 127.416C306.051 126.925 306.712 126.221 307.203 125.304C307.715 124.387 307.971 123.32 307.971 122.104ZM318.939 115.928C319.472 115.032 320.176 114.339 321.051 113.848C321.947 113.336 323.003 113.08 324.219 113.08V116.856H323.291C321.861 116.856 320.773 117.219 320.027 117.944C319.301 118.669 318.939 119.928 318.939 121.72V131H315.291V113.368H318.939V115.928ZM343.732 121.752C343.732 122.413 343.689 123.011 343.604 123.544H330.132C330.239 124.952 330.761 126.083 331.7 126.936C332.639 127.789 333.791 128.216 335.156 128.216C337.119 128.216 338.505 127.395 339.316 125.752H343.252C342.719 127.373 341.748 128.707 340.34 129.752C338.953 130.776 337.225 131.288 335.156 131.288C333.471 131.288 331.956 130.915 330.612 130.168C329.289 129.4 328.244 128.333 327.476 126.968C326.729 125.581 326.356 123.981 326.356 122.168C326.356 120.355 326.719 118.765 327.444 117.4C328.191 116.013 329.225 114.947 330.548 114.2C331.892 113.453 333.428 113.08 335.156 113.08C336.82 113.08 338.303 113.443 339.604 114.168C340.905 114.893 341.919 115.917 342.644 117.24C343.369 118.541 343.732 120.045 343.732 121.752ZM339.924 120.6C339.903 119.256 339.423 118.179 338.484 117.368C337.545 116.557 336.383 116.152 334.996 116.152C333.737 116.152 332.66 116.557 331.764 117.368C330.868 118.157 330.335 119.235 330.164 120.6H339.924ZM354.138 127.736L359.13 113.368H363.002L356.282 131H351.93L345.242 113.368H349.146L354.138 127.736ZM381.919 121.752C381.919 122.413 381.877 123.011 381.791 123.544H368.319C368.426 124.952 368.949 126.083 369.887 126.936C370.826 127.789 371.978 128.216 373.343 128.216C375.306 128.216 376.693 127.395 377.503 125.752H381.439C380.906 127.373 379.935 128.707 378.527 129.752C377.141 130.776 375.413 131.288 373.343 131.288C371.658 131.288 370.143 130.915 368.799 130.168C367.477 129.4 366.431 128.333 365.663 126.968C364.917 125.581 364.543 123.981 364.543 122.168C364.543 120.355 364.906 118.765 365.631 117.4C366.378 116.013 367.413 114.947 368.735 114.2C370.079 113.453 371.615 113.08 373.343 113.08C375.007 113.08 376.49 113.443 377.791 114.168C379.093 114.893 380.106 115.917 380.831 117.24C381.557 118.541 381.919 120.045 381.919 121.752ZM378.111 120.6C378.09 119.256 377.61 118.179 376.671 117.368C375.733 116.557 374.57 116.152 373.183 116.152C371.925 116.152 370.847 116.557 369.951 117.368C369.055 118.157 368.522 119.235 368.351 120.6H378.111Z" fill="#00C52B"/>
<defs>
<filter id="filter0_d_16_422" x="0" y="0" width="622" height="244.676" filterUnits="userSpaceOnUse" color-interpolation-filters="sRGB">
<feFlood flood-opacity="0" result="BackgroundImageFix"/>
<feColorMatrix in="SourceAlpha" type="matrix" values="0 0 0 0 0 0 0 0 0 0 0 0 0 0 0 0 0 0 127 0" result="hardAlpha"/>
<feOffset dx="4" dy="7"/>
<feGaussianBlur stdDeviation="13"/>
<feComposite in2="hardAlpha" operator="out"/>
<feColorMatrix type="matrix" values="0 0 0 0 0 0 0 0 0 0 0 0 0 0 0 0 0 0 0.12 0"/>
<feBlend mode="normal" in2="BackgroundImageFix" result="effect1_dropShadow_16_422"/>
<feBlend mode="normal" in="SourceGraphic" in2="effect1_dropShadow_16_422" result="shape"/>
</filter>
<linearGradient id="paint0_linear_16_422" x1="52.5" y1="125.5" x2="578" y2="166.5" gradientUnits="userSpaceOnUse">
<stop offset="0.0729167" stop-color="#282828" stop-opacity="0.65"/>
<stop offset="0.34375" stop-color="#282828" stop-opacity="0.65"/>
<stop offset="0.567708" stop-color="#282828"/>
<stop offset="0.848958" stop-color="#282828" stop-opacity="0.65"/>
<stop offset="1" stop-color="#282828" stop-opacity="0.8"/>
</linearGradient>
</defs>
</svg>
