<svg width="622" height="246" viewBox="0 0 622 246" fill="none" xmlns="http://www.w3.org/2000/svg">
<mask id="mask0_16_419" style="mask-type:alpha" maskUnits="userSpaceOnUse" x="22" y="17" width="570" height="169">
<rect x="22" y="17" width="570" height="168.061" rx="15" fill="#2C1250"/>
</mask>
<g mask="url(#mask0_16_419)">
<rect x="-51" y="13" width="643" height="7" fill="#00C52B"/>
</g>
<g filter="url(#filter0_d_16_419)">
<rect x="22" y="19.9619" width="570" height="192.676" rx="15" fill="url(#paint0_linear_16_419)" shape-rendering="crispEdges"/>
</g>
<path d="M194 90.5H401C406.247 90.5 410.5 94.7533 410.5 100V136C410.5 141.247 406.247 145.5 401 145.5H194C188.753 145.5 184.5 141.247 184.5 136V100C184.5 94.7533 188.753 90.5 194 90.5Z" fill="#282828" stroke="#00C52B"/>
<path d="M239.451 118.752C239.451 119.413 239.408 120.011 239.323 120.544H225.851C225.957 121.952 226.48 123.083 227.419 123.936C228.357 124.789 229.509 125.216 230.875 125.216C232.837 125.216 234.224 124.395 235.035 122.752H238.971C238.437 124.373 237.467 125.707 236.059 126.752C234.672 127.776 232.944 128.288 230.875 128.288C229.189 128.288 227.675 127.915 226.331 127.168C225.008 126.4 223.963 125.333 223.195 123.968C222.448 122.581 222.075 120.981 222.075 119.168C222.075 117.355 222.437 115.765 223.163 114.4C223.909 113.013 224.944 111.947 226.267 111.2C227.611 110.453 229.147 110.08 230.875 110.08C232.539 110.08 234.021 110.443 235.323 111.168C236.624 111.893 237.637 112.917 238.363 114.24C239.088 115.541 239.451 117.045 239.451 118.752ZM235.643 117.6C235.621 116.256 235.141 115.179 234.203 114.368C233.264 113.557 232.101 113.152 230.715 113.152C229.456 113.152 228.379 113.557 227.483 114.368C226.587 115.157 226.053 116.235 225.883 117.6H235.643ZM264.385 110.08C265.771 110.08 267.009 110.368 268.097 110.944C269.206 111.52 270.07 112.373 270.689 113.504C271.329 114.635 271.649 116 271.649 117.6V128H268.033V118.144C268.033 116.565 267.638 115.36 266.849 114.528C266.059 113.675 264.982 113.248 263.617 113.248C262.251 113.248 261.163 113.675 260.353 114.528C259.563 115.36 259.169 116.565 259.169 118.144V128H255.553V118.144C255.553 116.565 255.158 115.36 254.369 114.528C253.579 113.675 252.502 113.248 251.137 113.248C249.771 113.248 248.683 113.675 247.873 114.528C247.083 115.36 246.689 116.565 246.689 118.144V128H243.041V110.368H246.689V112.384C247.286 111.659 248.043 111.093 248.961 110.688C249.878 110.283 250.859 110.08 251.905 110.08C253.313 110.08 254.571 110.379 255.681 110.976C256.79 111.573 257.643 112.437 258.241 113.568C258.774 112.501 259.606 111.659 260.737 111.04C261.867 110.4 263.083 110.08 264.385 110.08ZM288.251 112.992C288.87 112.139 289.712 111.445 290.779 110.912C291.867 110.357 293.072 110.08 294.395 110.08C295.952 110.08 297.36 110.453 298.619 111.2C299.878 111.947 300.87 113.013 301.595 114.4C302.32 115.765 302.683 117.333 302.683 119.104C302.683 120.875 302.32 122.464 301.595 123.872C300.87 125.259 299.867 126.347 298.587 127.136C297.328 127.904 295.931 128.288 294.395 128.288C293.03 128.288 291.814 128.021 290.747 127.488C289.702 126.955 288.87 126.272 288.251 125.44V128H284.603V104.32H288.251V112.992ZM298.971 119.104C298.971 117.888 298.715 116.843 298.203 115.968C297.712 115.072 297.051 114.4 296.219 113.952C295.408 113.483 294.534 113.248 293.595 113.248C292.678 113.248 291.803 113.483 290.971 113.952C290.16 114.421 289.499 115.104 288.987 116C288.496 116.896 288.251 117.952 288.251 119.168C288.251 120.384 288.496 121.451 288.987 122.368C289.499 123.264 290.16 123.947 290.971 124.416C291.803 124.885 292.678 125.12 293.595 125.12C294.534 125.12 295.408 124.885 296.219 124.416C297.051 123.925 297.712 123.221 298.203 122.304C298.715 121.387 298.971 120.32 298.971 119.104ZM309.939 112.928C310.472 112.032 311.176 111.339 312.051 110.848C312.947 110.336 314.003 110.08 315.219 110.08V113.856H314.291C312.861 113.856 311.773 114.219 311.027 114.944C310.301 115.669 309.939 116.928 309.939 118.72V128H306.291V110.368H309.939V112.928ZM334.732 118.752C334.732 119.413 334.689 120.011 334.604 120.544H321.132C321.239 121.952 321.761 123.083 322.7 123.936C323.639 124.789 324.791 125.216 326.156 125.216C328.119 125.216 329.505 124.395 330.316 122.752H334.252C333.719 124.373 332.748 125.707 331.34 126.752C329.953 127.776 328.225 128.288 326.156 128.288C324.471 128.288 322.956 127.915 321.612 127.168C320.289 126.4 319.244 125.333 318.476 123.968C317.729 122.581 317.356 120.981 317.356 119.168C317.356 117.355 317.719 115.765 318.444 114.4C319.191 113.013 320.225 111.947 321.548 111.2C322.892 110.453 324.428 110.08 326.156 110.08C327.82 110.08 329.303 110.443 330.604 111.168C331.905 111.893 332.919 112.917 333.644 114.24C334.369 115.541 334.732 117.045 334.732 118.752ZM330.924 117.6C330.903 116.256 330.423 115.179 329.484 114.368C328.545 113.557 327.383 113.152 325.996 113.152C324.737 113.152 323.66 113.557 322.764 114.368C321.868 115.157 321.335 116.235 321.164 117.6H330.924ZM345.138 124.736L350.13 110.368H354.002L347.282 128H342.93L336.242 110.368H340.146L345.138 124.736ZM372.919 118.752C372.919 119.413 372.877 120.011 372.791 120.544H359.319C359.426 121.952 359.949 123.083 360.887 123.936C361.826 124.789 362.978 125.216 364.343 125.216C366.306 125.216 367.693 124.395 368.503 122.752H372.439C371.906 124.373 370.935 125.707 369.527 126.752C368.141 127.776 366.413 128.288 364.343 128.288C362.658 128.288 361.143 127.915 359.799 127.168C358.477 126.4 357.431 125.333 356.663 123.968C355.917 122.581 355.543 120.981 355.543 119.168C355.543 117.355 355.906 115.765 356.631 114.4C357.378 113.013 358.413 111.947 359.735 111.2C361.079 110.453 362.615 110.08 364.343 110.08C366.007 110.08 367.49 110.443 368.791 111.168C370.093 111.893 371.106 112.917 371.831 114.24C372.557 115.541 372.919 117.045 372.919 118.752ZM369.111 117.6C369.09 116.256 368.61 115.179 367.671 114.368C366.733 113.557 365.57 113.152 364.183 113.152C362.925 113.152 361.847 113.557 360.951 114.368C360.055 115.157 359.522 116.235 359.351 117.6H369.111Z" fill="#00C52B"/>
<defs>
<filter id="filter0_d_16_419" x="0" y="0.961914" width="622" height="244.676" filterUnits="userSpaceOnUse" color-interpolation-filters="sRGB">
<feFlood flood-opacity="0" result="BackgroundImageFix"/>
<feColorMatrix in="SourceAlpha" type="matrix" values="0 0 0 0 0 0 0 0 0 0 0 0 0 0 0 0 0 0 127 0" result="hardAlpha"/>
<feOffset dx="4" dy="7"/>
<feGaussianBlur stdDeviation="13"/>
<feComposite in2="hardAlpha" operator="out"/>
<feColorMatrix type="matrix" values="0 0 0 0 0 0 0 0 0 0 0 0 0 0 0 0 0 0 0.12 0"/>
<feBlend mode="normal" in2="BackgroundImageFix" result="effect1_dropShadow_16_419"/>
<feBlend mode="normal" in="SourceGraphic" in2="effect1_dropShadow_16_419" result="shape"/>
</filter>
<linearGradient id="paint0_linear_16_419" x1="-28.5" y1="115.962" x2="560.5" y2="190.5" gradientUnits="userSpaceOnUse">
<stop offset="0.0729167" stop-color="#282828" stop-opacity="0.8"/>
<stop offset="0.34375" stop-color="#282828" stop-opacity="0.65"/>
<stop offset="0.567708" stop-color="#282828" stop-opacity="0.4"/>
<stop offset="0.848958" stop-color="#2E2E2E" stop-opacity="0.65"/>
<stop offset="1" stop-color="#282828" stop-opacity="0.8"/>
</linearGradient>
</defs>
</svg>
