<svg width="622" height="245" viewBox="0 0 622 245" fill="none" xmlns="http://www.w3.org/2000/svg">
<g filter="url(#filter0_d_16_356)">
<rect x="22" y="19" width="570" height="192.676" rx="15" fill="url(#paint0_linear_16_356)" shape-rendering="crispEdges"/>
</g>
<mask id="mask0_16_356" style="mask-type:alpha" maskUnits="userSpaceOnUse" x="22" y="19" width="570" height="169">
<rect x="22" y="19" width="570" height="168.061" rx="15" fill="#2C1250"/>
</mask>
<g mask="url(#mask0_16_356)">
<rect x="-52.2498" y="14.959" width="643.106" height="8.08308" fill="#00C52B"/>
</g>
<path d="M203 96.5H410C415.247 96.5 419.5 100.753 419.5 106V142C419.5 147.247 415.247 151.5 410 151.5H203C197.753 151.5 193.5 147.247 193.5 142V106C193.5 100.753 197.753 96.5 203 96.5Z" fill="#282828" stroke="#00C52B"/>
<path d="M248.451 124.752C248.451 125.413 248.408 126.011 248.323 126.544H234.851C234.957 127.952 235.48 129.083 236.419 129.936C237.357 130.789 238.509 131.216 239.875 131.216C241.837 131.216 243.224 130.395 244.035 128.752H247.971C247.437 130.373 246.467 131.707 245.059 132.752C243.672 133.776 241.944 134.288 239.875 134.288C238.189 134.288 236.675 133.915 235.331 133.168C234.008 132.4 232.963 131.333 232.195 129.968C231.448 128.581 231.075 126.981 231.075 125.168C231.075 123.355 231.437 121.765 232.163 120.4C232.909 119.013 233.944 117.947 235.267 117.2C236.611 116.453 238.147 116.08 239.875 116.08C241.539 116.08 243.021 116.443 244.323 117.168C245.624 117.893 246.637 118.917 247.363 120.24C248.088 121.541 248.451 123.045 248.451 124.752ZM244.643 123.6C244.621 122.256 244.141 121.179 243.203 120.368C242.264 119.557 241.101 119.152 239.715 119.152C238.456 119.152 237.379 119.557 236.483 120.368C235.587 121.157 235.053 122.235 234.883 123.6H244.643ZM273.385 116.08C274.771 116.08 276.009 116.368 277.097 116.944C278.206 117.52 279.07 118.373 279.689 119.504C280.329 120.635 280.649 122 280.649 123.6V134H277.033V124.144C277.033 122.565 276.638 121.36 275.849 120.528C275.059 119.675 273.982 119.248 272.617 119.248C271.251 119.248 270.163 119.675 269.353 120.528C268.563 121.36 268.169 122.565 268.169 124.144V134H264.553V124.144C264.553 122.565 264.158 121.36 263.369 120.528C262.579 119.675 261.502 119.248 260.137 119.248C258.771 119.248 257.683 119.675 256.873 120.528C256.083 121.36 255.689 122.565 255.689 124.144V134H252.041V116.368H255.689V118.384C256.286 117.659 257.043 117.093 257.961 116.688C258.878 116.283 259.859 116.08 260.905 116.08C262.313 116.08 263.571 116.379 264.681 116.976C265.79 117.573 266.643 118.437 267.241 119.568C267.774 118.501 268.606 117.659 269.737 117.04C270.867 116.4 272.083 116.08 273.385 116.08ZM297.251 118.992C297.87 118.139 298.712 117.445 299.779 116.912C300.867 116.357 302.072 116.08 303.395 116.08C304.952 116.08 306.36 116.453 307.619 117.2C308.878 117.947 309.87 119.013 310.595 120.4C311.32 121.765 311.683 123.333 311.683 125.104C311.683 126.875 311.32 128.464 310.595 129.872C309.87 131.259 308.867 132.347 307.587 133.136C306.328 133.904 304.931 134.288 303.395 134.288C302.03 134.288 300.814 134.021 299.747 133.488C298.702 132.955 297.87 132.272 297.251 131.44V134H293.603V110.32H297.251V118.992ZM307.971 125.104C307.971 123.888 307.715 122.843 307.203 121.968C306.712 121.072 306.051 120.4 305.219 119.952C304.408 119.483 303.534 119.248 302.595 119.248C301.678 119.248 300.803 119.483 299.971 119.952C299.16 120.421 298.499 121.104 297.987 122C297.496 122.896 297.251 123.952 297.251 125.168C297.251 126.384 297.496 127.451 297.987 128.368C298.499 129.264 299.16 129.947 299.971 130.416C300.803 130.885 301.678 131.12 302.595 131.12C303.534 131.12 304.408 130.885 305.219 130.416C306.051 129.925 306.712 129.221 307.203 128.304C307.715 127.387 307.971 126.32 307.971 125.104ZM318.939 118.928C319.472 118.032 320.176 117.339 321.051 116.848C321.947 116.336 323.003 116.08 324.219 116.08V119.856H323.291C321.861 119.856 320.773 120.219 320.027 120.944C319.301 121.669 318.939 122.928 318.939 124.72V134H315.291V116.368H318.939V118.928ZM343.732 124.752C343.732 125.413 343.689 126.011 343.604 126.544H330.132C330.239 127.952 330.761 129.083 331.7 129.936C332.639 130.789 333.791 131.216 335.156 131.216C337.119 131.216 338.505 130.395 339.316 128.752H343.252C342.719 130.373 341.748 131.707 340.34 132.752C338.953 133.776 337.225 134.288 335.156 134.288C333.471 134.288 331.956 133.915 330.612 133.168C329.289 132.4 328.244 131.333 327.476 129.968C326.729 128.581 326.356 126.981 326.356 125.168C326.356 123.355 326.719 121.765 327.444 120.4C328.191 119.013 329.225 117.947 330.548 117.2C331.892 116.453 333.428 116.08 335.156 116.08C336.82 116.08 338.303 116.443 339.604 117.168C340.905 117.893 341.919 118.917 342.644 120.24C343.369 121.541 343.732 123.045 343.732 124.752ZM339.924 123.6C339.903 122.256 339.423 121.179 338.484 120.368C337.545 119.557 336.383 119.152 334.996 119.152C333.737 119.152 332.66 119.557 331.764 120.368C330.868 121.157 330.335 122.235 330.164 123.6H339.924ZM354.138 130.736L359.13 116.368H363.002L356.282 134H351.93L345.242 116.368H349.146L354.138 130.736ZM381.919 124.752C381.919 125.413 381.877 126.011 381.791 126.544H368.319C368.426 127.952 368.949 129.083 369.887 129.936C370.826 130.789 371.978 131.216 373.343 131.216C375.306 131.216 376.693 130.395 377.503 128.752H381.439C380.906 130.373 379.935 131.707 378.527 132.752C377.141 133.776 375.413 134.288 373.343 134.288C371.658 134.288 370.143 133.915 368.799 133.168C367.477 132.4 366.431 131.333 365.663 129.968C364.917 128.581 364.543 126.981 364.543 125.168C364.543 123.355 364.906 121.765 365.631 120.4C366.378 119.013 367.413 117.947 368.735 117.2C370.079 116.453 371.615 116.08 373.343 116.08C375.007 116.08 376.49 116.443 377.791 117.168C379.093 117.893 380.106 118.917 380.831 120.24C381.557 121.541 381.919 123.045 381.919 124.752ZM378.111 123.6C378.09 122.256 377.61 121.179 376.671 120.368C375.733 119.557 374.57 119.152 373.183 119.152C371.925 119.152 370.847 119.557 369.951 120.368C369.055 121.157 368.522 122.235 368.351 123.6H378.111Z" fill="#00C52B"/>
<defs>
<filter id="filter0_d_16_356" x="0" y="0" width="622" height="244.676" filterUnits="userSpaceOnUse" color-interpolation-filters="sRGB">
<feFlood flood-opacity="0" result="BackgroundImageFix"/>
<feColorMatrix in="SourceAlpha" type="matrix" values="0 0 0 0 0 0 0 0 0 0 0 0 0 0 0 0 0 0 127 0" result="hardAlpha"/>
<feOffset dx="4" dy="7"/>
<feGaussianBlur stdDeviation="13"/>
<feComposite in2="hardAlpha" operator="out"/>
<feColorMatrix type="matrix" values="0 0 0 0 0 0 0 0 0 0 0 0 0 0 0 0 0 0 0.12 0"/>
<feBlend mode="normal" in2="BackgroundImageFix" result="effect1_dropShadow_16_356"/>
<feBlend mode="normal" in="SourceGraphic" in2="effect1_dropShadow_16_356" result="shape"/>
</filter>
<linearGradient id="paint0_linear_16_356" x1="-28.5" y1="115" x2="307" y2="211.676" gradientUnits="userSpaceOnUse">
<stop offset="0.0729167" stop-color="#282828"/>
<stop offset="0.34375" stop-color="#282828" stop-opacity="0.8"/>
<stop offset="0.567708" stop-color="#282828" stop-opacity="0.4"/>
<stop offset="0.848958" stop-color="#282828" stop-opacity="0.65"/>
<stop offset="1" stop-color="#282828" stop-opacity="0.8"/>
</linearGradient>
</defs>
</svg>
