<svg width="199" height="72" viewBox="0 0 199 72" fill="none" xmlns="http://www.w3.org/2000/svg">
<path d="M197.764 22.8584C198.342 27.1508 196.268 31.6754 191.835 36.2077C187.408 40.7344 180.689 45.2005 172.157 49.3495C155.099 57.6449 130.898 64.6219 103.6 68.2966C76.3029 71.9714 51.1183 71.6427 32.4736 68.1535C23.1485 66.4084 15.4881 63.8779 10.0212 60.6832C4.54753 57.4845 1.35097 53.6694 0.773138 49.377C0.195305 45.0846 2.26919 40.56 6.70213 36.0277C11.1296 31.5011 17.8481 27.0349 26.3798 22.886C43.438 14.5905 67.6391 7.61357 94.9367 3.93882C122.234 0.264066 147.419 0.592794 166.063 4.08197C175.389 5.82708 183.049 8.35757 188.516 11.5523C193.99 14.751 197.186 18.5661 197.764 22.8584Z" stroke="white"/>
</svg>
