<svg id="visual" viewBox="0 0 1920 1080" width="1920" height="1080" xmlns="http://www.w3.org/2000/svg" xmlns:xlink="http://www.w3.org/1999/xlink" version="1.1"><rect x="0" y="0" width="1920" height="1080" fill="#000a13"></rect><path d="M0 874L26.7 886.2C53.3 898.3 106.7 922.7 160 928.3C213.3 934 266.7 921 320 919.7C373.3 918.3 426.7 928.7 480 940.5C533.3 952.3 586.7 965.7 640 969.5C693.3 973.3 746.7 967.7 800 963.8C853.3 960 906.7 958 960 944.3C1013.3 930.7 1066.7 905.3 1120 894.2C1173.3 883 1226.7 886 1280 883.3C1333.3 880.7 1386.7 872.3 1440 876C1493.3 879.7 1546.7 895.3 1600 904.8C1653.3 914.3 1706.7 917.7 1760 926.3C1813.3 935 1866.7 949 1893.3 956L1920 963L1920 1081L1893.3 1081C1866.7 1081 1813.3 1081 1760 1081C1706.7 1081 1653.3 1081 1600 1081C1546.7 1081 1493.3 1081 1440 1081C1386.7 1081 1333.3 1081 1280 1081C1226.7 1081 1173.3 1081 1120 1081C1066.7 1081 1013.3 1081 960 1081C906.7 1081 853.3 1081 800 1081C746.7 1081 693.3 1081 640 1081C586.7 1081 533.3 1081 480 1081C426.7 1081 373.3 1081 320 1081C266.7 1081 213.3 1081 160 1081C106.7 1081 53.3 1081 26.7 1081L0 1081Z" fill="#08ff00" stroke-linecap="round" stroke-linejoin="miter"></path></svg>